<?xml version="1.0" standalone="no"?><!DOCTYPE svg PUBLIC "-//W3C//DTD SVG 1.1//EN" "http://www.w3.org/Graphics/SVG/1.1/DTD/svg11.dtd"><svg t="1657247017018" class="icon" viewBox="0 0 1024 1024" version="1.1" xmlns="http://www.w3.org/2000/svg" p-id="876" xmlns:xlink="http://www.w3.org/1999/xlink" width="200" height="200"><defs><style type="text/css">@font-face { font-family: "feedback-iconfont"; src: url("//at.alicdn.com/t/font_1031158_u69w8yhxdu.woff2?t=1630033759944") format("woff2"), url("//at.alicdn.com/t/font_1031158_u69w8yhxdu.woff?t=1630033759944") format("woff"), url("//at.alicdn.com/t/font_1031158_u69w8yhxdu.ttf?t=1630033759944") format("truetype"); }
</style></defs><path d="M224 789.333333h-64C119.466667 789.333333 85.333333 755.2 85.333333 714.666667v-213.333334C85.333333 460.8 119.466667 426.666667 160 426.666667h64c40.533333 0 74.666667 34.133333 74.666667 74.666666v213.333334c0 40.533333-34.133333 74.666667-74.666667 74.666666z" fill="#18a058" p-id="877" data-spm-anchor-id="a313x.7781069.0.i0" class=""></path><path d="M864 298.666667h-64c-40.533333 0-74.666667 34.133333-74.666667 74.666666v341.333334c0 40.533333 34.133333 74.666667 74.666667 74.666666h64c40.533333 0 74.666667-34.133333 74.666667-74.666666v-341.333334c0-40.533333-34.133333-74.666667-74.666667-74.666666z m10.666667 416c0 6.4-4.266667 10.666667-10.666667 10.666666h-64c-6.4 0-10.666667-4.266667-10.666667-10.666666v-341.333334c0-6.4 4.266667-10.666667 10.666667-10.666666h64c6.4 0 10.666667 4.266667 10.666667 10.666666v341.333334zM544 85.333333h-64C439.466667 85.333333 405.333333 119.466667 405.333333 160v554.666667c0 40.533333 34.133333 74.666667 74.666667 74.666666h64c40.533333 0 74.666667-34.133333 74.666667-74.666666v-554.666667C618.666667 119.466667 584.533333 85.333333 544 85.333333z m10.666667 629.333334c0 6.4-4.266667 10.666667-10.666667 10.666666h-64c-6.4 0-10.666667-4.266667-10.666667-10.666666v-554.666667c0-6.4 4.266667-10.666667 10.666667-10.666667h64c6.4 0 10.666667 4.266667 10.666667 10.666667v554.666667zM85.333333 874.666667h853.333334v64H85.333333z" fill="#333333" p-id="878" data-spm-anchor-id="a313x.7781069.0.i1" class="selected"></path></svg>