<?xml version="1.0" standalone="no"?><!DOCTYPE svg PUBLIC "-//W3C//DTD SVG 1.1//EN" "http://www.w3.org/Graphics/SVG/1.1/DTD/svg11.dtd"><svg t="1657247051907" class="icon" viewBox="0 0 1024 1024" version="1.1" xmlns="http://www.w3.org/2000/svg" p-id="1330" xmlns:xlink="http://www.w3.org/1999/xlink" width="200" height="200"><defs><style type="text/css">@font-face { font-family: "feedback-iconfont"; src: url("//at.alicdn.com/t/font_1031158_u69w8yhxdu.woff2?t=1630033759944") format("woff2"), url("//at.alicdn.com/t/font_1031158_u69w8yhxdu.woff?t=1630033759944") format("woff"), url("//at.alicdn.com/t/font_1031158_u69w8yhxdu.ttf?t=1630033759944") format("truetype"); }
</style></defs><path d="M925.866667 529.066667c-8.533333-10.666667-23.466667-17.066667-38.4-17.066667H526.933333c-8.533333 0-14.933333-6.4-14.933333-14.933333V136.533333c0-14.933333-6.4-27.733333-17.066667-38.4-10.666667-8.533333-25.6-14.933333-40.533333-12.8C230.4 117.333333 68.266667 317.866667 87.466667 546.133333c17.066667 204.8 185.6 373.333333 390.4 390.4 12.8 2.133333 23.466667 2.133333 36.266666 2.133334 213.333333 0 394.666667-157.866667 424.533334-369.066667 2.133333-17.066667-4.266667-29.866667-12.8-40.533333zM482.133333 874.666667C307.2 859.733333 164.266667 716.8 149.333333 541.866667 134.4 352 264.533333 183.466667 448 149.333333v345.6c0 42.666667 34.133333 76.8 76.8 76.8h345.6c-29.866667 187.733333-198.4 317.866667-388.266667 302.933334z m0 0" fill="#333333" p-id="1331" data-spm-anchor-id="a313x.7781069.0.i8" class=""></path><path d="M629.333333 448h243.2c14.933333 0 32-8.533333 40.533334-21.333333 8.533333-12.8 12.8-29.866667 8.533333-46.933334-42.666667-132.266667-145.066667-236.8-277.333333-277.333333-14.933333-4.266667-34.133333-2.133333-46.933334 8.533333-14.933333 8.533333-21.333333 23.466667-21.333333 40.533334v243.2c0 27.733333 25.6 53.333333 53.333333 53.333333zM640 168.533333c100.266667 36.266667 177.066667 115.2 215.466667 215.466667H640V168.533333z m0 0" fill="#18a058" p-id="1332" data-spm-anchor-id="a313x.7781069.0.i7" class="selected"></path></svg>