<?xml version="1.0" standalone="no"?><!DOCTYPE svg PUBLIC "-//W3C//DTD SVG 1.1//EN" "http://www.w3.org/Graphics/SVG/1.1/DTD/svg11.dtd"><svg t="1657345578243" class="icon" viewBox="0 0 1024 1024" version="1.1" xmlns="http://www.w3.org/2000/svg" p-id="4070" data-spm-anchor-id="a313x.7781069.0.i1" xmlns:xlink="http://www.w3.org/1999/xlink" width="200" height="200"><defs><style type="text/css">@font-face { font-family: "feedback-iconfont"; src: url("//at.alicdn.com/t/font_1031158_u69w8yhxdu.woff2?t=1630033759944") format("woff2"), url("//at.alicdn.com/t/font_1031158_u69w8yhxdu.woff?t=1630033759944") format("woff"), url("//at.alicdn.com/t/font_1031158_u69w8yhxdu.ttf?t=1630033759944") format("truetype"); }
</style></defs><path d="M512 881.68448a20.45952 20.45952 0 0 1-20.48-20.48V527.4624a20.48 20.48 0 0 1 13.45536-19.23072l282.39872-103.168a20.49024 20.49024 0 0 1 27.51488 19.23072v333.75232a20.48 20.48 0 0 1-13.44512 19.24096L519.03488 880.4352a20.4288 20.4288 0 0 1-7.03488 1.24928z m20.48-339.90656v290.14016l241.43872-88.18688V453.5808L532.48 541.77792z m261.91872 216.2688h0.1024-0.1024z" fill="#231F20" p-id="4071"></path><path d="M512 881.68448c-2.36544 0-4.74112-0.4096-7.02464-1.23904L222.57664 777.28768a20.48 20.48 0 0 1-13.45536-19.24096V424.2944a20.48 20.48 0 0 1 27.50464-19.23072l282.40896 103.168A20.44928 20.44928 0 0 1 532.48 527.4624v333.74208a20.44928 20.44928 0 0 1-20.48 20.48zM250.08128 743.7312L491.52 831.91808V541.77792l-241.43872-88.19712V743.7312zM512 440.99584a20.48 20.48 0 0 1-20.48-20.48V162.79552a20.48 20.48 0 0 1 40.96 0v257.72032a20.48 20.48 0 0 1-20.48 20.48z" fill="#18a058" p-id="4072" data-spm-anchor-id="a313x.7781069.0.i2" class=""></path><path d="M596.14208 267.37664a20.4288 20.4288 0 0 1-14.47936-5.9904l-69.48864-69.45792-67.6864 69.28384a20.46976 20.46976 0 1 1-29.29664-28.6208l82.16576-84.10112a20.54144 20.54144 0 0 1 14.53056-6.17472c5.376-0.43008 10.73152 2.12992 14.60224 5.9904l84.14208 84.10112a20.50048 20.50048 0 0 1-14.4896 34.9696zM512.13312 547.93216a20.48 20.48 0 0 1-7.02464-1.23904L222.57664 443.53536a20.49024 20.49024 0 0 1 0.01024-38.48192l220.59008-80.36352a20.48 20.48 0 0 1 14.01856 38.49216l-167.8336 61.14304 222.76096 81.32608 222.54592-81.32608-166.44096-60.70272a20.48 20.48 0 1 1 14.03904-38.48192l219.136 79.9232a20.48 20.48 0 0 1 0.01024 38.47168L519.15776 546.69312a20.43904 20.43904 0 0 1-7.02464 1.23904z" fill="#333333" p-id="4073" data-spm-anchor-id="a313x.7781069.0.i3" class="selected"></path></svg>